<?xml version="1.0" encoding="utf-8"?>
<!-- Generator: Adobe Illustrator 19.1.0, SVG Export Plug-In . SVG Version: 6.00 Build 0)  -->
<svg version="1.1" id="Layer_1" xmlns="http://www.w3.org/2000/svg" xmlns:xlink="http://www.w3.org/1999/xlink" x="0px" y="0px"
	 viewBox="-598 375.6 82.1 51.4" style="enable-background:new -598 375.6 82.1 51.4;" xml:space="preserve">
<style type="text/css">
	.st0{opacity:0.8;fill:#51B2E8;enable-background:new    ;}
</style>
<g id="XMLID_423_">
	<path id="XMLID_448_" class="st0" d="M-515.9,425.1c-3.4-5.5-4.9-10.1-5.2-14c1.6-3.8,2.2-7.9,1.8-12.3
		c-1.4-14.1-14-24.4-28.1-23.1c-14.1,1.3-24.5,14-23.1,28.1s13.9,24.5,28.1,23.1c4.7-0.5,9-2.1,12.5-4.7
		C-521.5,425-515.9,425.1-515.9,425.1z"/>
	<path id="XMLID_446_" class="st0" d="M-598,425.1c3.4-5.5,4.9-10.1,5.2-14c-1.5-3.7-2.2-7.9-1.8-12.3c1.4-14.1,13.9-24.4,28.1-23.1
		c14.2,1.3,24.5,14,23.1,28.1c-1.4,14.1-14,24.5-28.1,23.1c-4.7-0.5-9-2.1-12.5-4.7C-592.4,425-598,425.1-598,425.1z"/>
</g>
</svg>
