<?xml version="1.0" encoding="utf-8"?>
<!-- Generator: Adobe Illustrator 19.1.0, SVG Export Plug-In . SVG Version: 6.00 Build 0)  -->
<svg version="1.1" id="Layer_1" xmlns="http://www.w3.org/2000/svg" xmlns:xlink="http://www.w3.org/1999/xlink" x="0px" y="0px"
	 viewBox="0 0 82.1 51.4" style="enable-background:new 0 0 82.1 51.4;" xml:space="preserve">
<style type="text/css">
	.st0{opacity:0.8;fill:#FFFFFF;}
</style>
<g id="XMLID_423_">
	<path id="XMLID_448_" class="st0" d="M82.1,49.5c-3.4-5.5-4.9-10.1-5.2-14c1.6-3.8,2.2-7.9,1.8-12.3C77.3,9.1,64.7-1.2,50.6,0.1
		S26.1,14.1,27.5,28.2s13.9,24.5,28.1,23.1c4.7-0.5,9-2.1,12.5-4.7C76.5,49.4,82.1,49.5,82.1,49.5z"/>
	<path id="XMLID_446_" class="st0" d="M0,49.5c3.4-5.5,4.9-10.1,5.2-14C3.7,31.8,3,27.6,3.4,23.2C4.8,9.1,17.3-1.2,31.5,0.1
		S56,14.1,54.6,28.2S40.6,52.7,26.5,51.3c-4.7-0.5-9-2.1-12.5-4.7C5.6,49.4,0,49.5,0,49.5z"/>
</g>
</svg>
