<?xml version="1.0" encoding="utf-8"?>
<!-- Generator: Adobe Illustrator 19.1.0, SVG Export Plug-In . SVG Version: 6.00 Build 0)  -->
<svg version="1.1" id="Layer_1" xmlns="http://www.w3.org/2000/svg" xmlns:xlink="http://www.w3.org/1999/xlink" x="0px" y="0px"
	 viewBox="0 0 73.5 50" style="enable-background:new 0 0 73.5 50;" xml:space="preserve">
<style type="text/css">
	.st0{opacity:0.8;fill:#FFFFFF;}
</style>
<g>
	<g id="XMLID_449_">
		<path id="XMLID_519_" class="st0" d="M50,12.9c0-0.1,0-0.2,0-0.4h0C49.6,5.5,43.9,0,36.8,0C31.6,0,27.1,3,25,7.4
			C22.9,3,18.4,0,13.2,0C6.1,0,0.4,5.5,0,12.5h0c0,0.1,0,0.2,0,0.4c0,0.1,0,0.2,0,0.3c0,1,0.1,1.9,0.3,2.8C3.1,32.7,25,50,25,50
			s21.9-17.3,24.7-34c0.2-0.9,0.3-1.8,0.3-2.8C50,13.1,50,13,50,12.9z"/>
		<path id="XMLID_756_" class="st0" d="M73.5,12.9c0-0.1,0-0.2,0-0.4h0C73.1,5.5,67.4,0,60.4,0c-5.2,0-9.7,3-11.8,7.4
			C46.4,3,41.9,0,36.7,0c-7,0-12.8,5.5-13.1,12.5h0c0,0.1,0,0.2,0,0.4c0,0.1,0,0.2,0,0.3c0,1,0.1,1.9,0.3,2.8
			c2.8,16.8,24.7,34,24.7,34s21.9-17.3,24.7-34c0.2-0.9,0.3-1.8,0.3-2.8C73.5,13.1,73.5,13,73.5,12.9z"/>
	</g>
</g>
</svg>
