<?xml version="1.0" encoding="utf-8"?>
<!-- Generator: Adobe Illustrator 19.1.0, SVG Export Plug-In . SVG Version: 6.00 Build 0)  -->
<svg version="1.1" id="Layer_1" xmlns="http://www.w3.org/2000/svg" xmlns:xlink="http://www.w3.org/1999/xlink" x="0px" y="0px"
	 viewBox="-237 306.2 984.2 175.1" style="enable-background:new -237 306.2 984.2 175.1;" xml:space="preserve">
<style type="text/css">
	.st0{fill:#52B2E8;}
	.st1{fill:#FFFFFF;}
</style>
<g id="XMLID_2_">
	<path id="XMLID_19_" class="st0" d="M41,385.4h4.3v9.8c0,2.4-0.4,4.2-0.4,4.2h0.2c2.6-7.9,8.4-14.4,16.5-14.4c1.5,0,3,0.3,3,0.3
		v4.3c0,0-1.2-0.2-2.4-0.2c-8.1,0-13.1,6.8-15.4,14.4c-1.1,3.6-1.5,7.4-1.5,10.8V437H41V385.4z"/>
	<path id="XMLID_21_" class="st0" d="M96.1,384.2c14,0,21.1,11,21.1,23.5c0,1.1-0.2,2.8-0.2,2.8H75.6c0,15,10.1,23.5,22.1,23.5
		c9.9,0,16-6.5,16-6.5l2.4,3.6c0,0-7.2,7.1-18.4,7.1c-14.6,0-26.6-10.5-26.6-26.9C71,393.9,82.9,384.2,96.1,384.2z M112.6,406.5
		c-0.5-12.6-8.1-18.3-16.6-18.3c-9.5,0-18.3,6.2-20.1,18.3H112.6z"/>
	<path id="XMLID_24_" class="st0" d="M151.5,384.2c13,0,17.9,11.7,17.9,11.7h0.2c0,0-0.4-1.9-0.4-4.2v-26.9h4.3V437h-4.3v-6.5
		c0-2.4,0.4-3.9,0.4-3.9h-0.2c0,0-4.4,11.7-18.7,11.7c-13.8,0-22.3-11-22.3-27C128.3,394.8,137.9,384.2,151.5,384.2z M150.9,434
		c9.5,0,18.4-6.7,18.4-22.9c0-11.5-5.9-22.7-18-22.7c-10.1,0-18.4,8.4-18.4,22.8C132.9,425.2,140.3,434,150.9,434z"/>
	<path id="XMLID_27_" class="st0" d="M211.4,384.2c13,0,17.9,11.7,17.9,11.7h0.2c0,0-0.4-1.9-0.4-4.2v-26.9h4.3V437H229v-6.5
		c0-2.4,0.4-3.9,0.4-3.9h-0.2c0,0-4.4,11.7-18.7,11.7c-13.8,0-22.3-11-22.3-27C188.2,394.8,197.8,384.2,211.4,384.2z M210.8,434
		c9.5,0,18.4-6.7,18.4-22.9c0-11.5-5.9-22.7-18-22.7c-10.1,0-18.4,8.4-18.4,22.8C192.8,425.2,200.2,434,210.8,434z"/>
	<path id="XMLID_30_" class="st0" d="M251.1,364.8h5.2v7.5h-5.2V364.8z M251.5,385.4h4.3V437h-4.3V385.4z"/>
	<path id="XMLID_33_" class="st0" d="M272.2,384.4h12.6v6.1c0,2-0.2,3.6-0.2,3.6h0.2c2.6-5.2,8.9-10.9,17.1-10.9
		c8.1,0,13.2,3.7,15.4,10.8h0.2c2.9-5.7,9.7-10.8,18-10.8c10.9,0,17.2,6.2,17.2,20V437h-13.1v-31.3c0-6-1.1-10.5-7.2-10.5
		c-6.7,0-11.2,5.4-12.7,12c-0.5,2.1-0.6,4.3-0.6,6.8v23H306v-31.3c0-5.7-0.9-10.5-7.1-10.5c-6.8,0-11.3,5.4-12.9,12.1
		c-0.5,2-0.6,4.3-0.6,6.7v23h-13.1v-52.6H272.2z"/>
	<path id="XMLID_35_" class="st0" d="M393.2,404h1.8v-0.7c0-6.9-4.3-9.3-10.1-9.3c-7.5,0-14.5,5.1-14.5,5.1l-5-9.4
		c0,0,8.2-6.5,20.7-6.5c13.8,0,21.9,7.6,21.9,20.9V437h-12.1v-4.3c0-2.1,0.2-3.7,0.2-3.7h-0.2c0.1,0-4,9.3-16,9.3
		c-9.4,0-17.9-5.9-17.9-16.4C362,405.1,384.7,404,393.2,404z M383.2,428c6.9,0,11.9-7.4,11.9-13.8V413h-2.3
		c-6.7,0-17.6,0.9-17.6,8.3C375.3,424.7,377.8,428,383.2,428z"/>
	<path id="XMLID_38_" class="st0" d="M423.6,395.6h-6.8v-10.4h7.1V370h12.8v15.2h12v10.4h-12V416c0,8.7,6.8,9.9,10.4,9.9
		c1.4,0,2.4-0.2,2.4-0.2v11.5c0,0-1.5,0.3-4,0.3c-7.3,0-21.9-2.2-21.9-19.8V395.6z"/>
	<path id="XMLID_40_" class="st0" d="M485,383.2c13.7,0,20.2,7.8,20.2,7.8l-5.8,9c0,0-5.5-5.7-13.7-5.7c-9.7,0-16,7.3-16,16.3
		c0,8.9,6.4,16.5,16.4,16.5c8.9,0,15.5-6.7,15.5-6.7l5.1,9.3c0,0-7.5,8.6-21.7,8.6c-17.5,0-28.6-12.3-28.6-27.6
		C456.4,395.7,467.6,383.2,485,383.2z"/>
	<path id="XMLID_42_" class="st0" d="M516.5,363.8h13.1v25.4c0,2.6-0.2,4.4-0.2,4.4h0.2c2.6-5.1,9-10.4,18.2-10.4
		c11.7,0,18.3,6.1,18.3,20V437h-13v-31.1c0-6.4-1.7-10.7-8.4-10.7c-6.9,0-12.3,4.5-14.3,10.9c-0.6,2.1-0.8,4.3-0.8,6.8V437h-13.1
		V363.8z"/>
</g>
<g id="XMLID_123_">
	<g id="XMLID_188_">
		<path id="XMLID_54_" class="st0" d="M-128.8,468.5c-8,2.2-16.6,3.1-25.4,2.2c-12.3-1.2-24.1-5.6-34.1-12.8
			c-0.9-0.6-1.9-0.9-2.9-0.9c-0.5,0-1.1,0.1-1.6,0.3c-12.6,4.3-23.1,6.3-30,7.3c6.3-12,10-23.5,11-34.5c0.1-0.8-0.1-1.6-0.4-2.3
			c-4.3-10.5-6-22.1-4.9-33.4c1.8-18.8,10.7-35.5,25.2-47.4c14.4-11.9,32.6-17.5,51.2-15.7c18.6,1.8,35.4,10.7,47.3,25.2
			s17.4,32.6,15.6,51.2c-2.1,21.3-13.5,39.4-29.8,50.7c3.4,1.8,7,3.3,10.7,4.5c16-13,26.9-32.1,29.1-54.2
			c4.3-43.9-28-83.1-71.9-87.3c-21.3-2.1-42.1,4.3-58.6,17.8c-16.5,13.6-26.7,32.8-28.8,54.1c-1.2,12.6,0.6,25.3,5.2,37
			c-1.2,11.6-6.1,24.2-14.3,37.5c-1,1.6-1,3.5-0.1,5.1s2.6,2.6,4.4,2.5c0.7,0,16.3-0.4,39.9-8c11,7.4,23.7,11.9,36.8,13.2
			c2.6,0.3,5.2,0.4,7.8,0.4c10.2,0,20.1-2,29.2-5.6C-121.9,473.4-125.5,471.1-128.8,468.5z"/>
	</g>
	<g id="XMLID_175_">
		<path id="XMLID_55_" class="st0" d="M11.6,467.8C3.3,454.6-1.5,442-2.7,430.3c4.6-11.7,6.4-24.5,5.2-37
			c-2.1-21.3-12.3-40.5-28.8-54c-16.6-13.6-37.4-20-58.6-17.9c-7.6,0.7-14.8,2.5-21.5,5.2c3.7,2.1,7.3,4.4,10.6,7
			c3.8-1.1,7.8-1.8,11.8-2.2c2.3-0.2,4.6-0.3,6.9-0.3c16.2,0,31.7,5.6,44.4,16c14.4,11.9,23.4,28.7,25.2,47.3
			c1.1,11.4-0.6,22.9-4.9,33.4c-0.3,0.7-0.4,1.5-0.4,2.3c1,10.9,4.6,22.5,11,34.5c-6.9-1-17.3-3.1-30-7.3c-1.5-0.5-3.2-0.3-4.5,0.7
			c-10,7.2-21.8,11.6-34.1,12.8c-38.4,3.7-72.7-24.5-76.4-62.9c-1.8-18.6,3.7-36.8,15.6-51.2c4.2-5,8.9-9.4,14.1-13
			c-3.4-1.8-7-3.3-10.7-4.4c-20,16.4-31.7,42.1-29.1,69.7c4,41.3,38.9,72.3,79.6,72.3c2.6,0,5.2-0.1,7.8-0.4
			c13.2-1.3,25.9-5.8,36.8-13.2c23.6,7.6,39.2,8,39.9,8h0.1c1.8,0,3.5-1,4.4-2.5C12.6,471.3,12.5,469.3,11.6,467.8z"/>
	</g>
</g>
<g>
	<path id="XMLID_2353_" class="st0" d="M595.1,355.4c-0.7,8.2-3.8,18.1-11,29.7c0,0,11.9-0.2,29.7-6.2L595.1,355.4z"/>
	<path class="st0" d="M717.2,380.7h-93.7c-16.6,0-30-13.4-30-30v-14.5c0-16.6,13.4-30,30-30h93.7c16.6,0,30,13.4,30,30v14.5
		C747.2,367.3,733.8,380.7,717.2,380.7z"/>
</g>
<g>
	<path class="st1" d="M615.1,321.8h7.3v12.5c0,1.4-0.1,2.5-0.1,2.5h0.1c0,0,2.6-4.2,8.8-4.2c7.9,0,12.9,6.2,12.9,15.3
		c0,9.3-5.7,15.3-13.4,15.3c-6.1,0-8.7-4.3-8.7-4.3h-0.1c0,0,0.1,0.9,0.1,2v1.7h-6.9V321.8z M629.4,357c4,0,7.3-3.3,7.3-9
		c0-5.6-3-9.2-7.3-9.2c-3.8,0-7.3,2.7-7.3,9.2C622.2,352.6,624.6,357,629.4,357z"/>
	<path class="st1" d="M662.8,332.6c8.4,0,12.9,6.1,12.9,13.8c0,0.9-0.2,2.8-0.2,2.8h-20.1c0.5,5.1,4.4,7.7,8.8,7.7
		c4.7,0,8.4-3.2,8.4-3.2l2.8,5.2c0,0-4.5,4.2-11.7,4.2c-9.7,0-15.7-7-15.7-15.3C648,338.9,654.1,332.6,662.8,332.6z M668.4,344.3
		c-0.1-3.9-2.6-6.1-5.8-6.1c-3.7,0-6.3,2.3-7,6.1H668.4z"/>
	<path class="st1" d="M683,339.5h-3.8v-5.8h3.9v-8.4h7.1v8.4h6.6v5.8h-6.6v11.3c0,4.8,3.8,5.5,5.8,5.5c0.8,0,1.3-0.1,1.3-0.1v6.4
		c0,0-0.9,0.2-2.2,0.2c-4.1,0-12.1-1.2-12.1-11V339.5z"/>
	<path class="st1" d="M718.2,344.2h1v-0.4c0-3.8-2.4-5.1-5.6-5.1c-4.2,0-8,2.8-8,2.8l-2.7-5.2c0,0,4.5-3.6,11.4-3.6
		c7.7,0,12.1,4.2,12.1,11.6v18.3h-6.7v-2.4c0-1.1,0.1-2.1,0.1-2.1h-0.1c0.1,0-2.2,5.1-8.9,5.1c-5.2,0-9.9-3.3-9.9-9.1
		C700.9,344.8,713.4,344.2,718.2,344.2z M712.6,357.5c3.8,0,6.6-4.1,6.6-7.7v-0.7h-1.3c-3.7,0-9.7,0.5-9.7,4.6
		C708.2,355.7,709.6,357.5,712.6,357.5z"/>
</g>
</svg>
