<?xml version="1.0" encoding="utf-8"?>
<!-- Generator: Adobe Illustrator 19.1.0, SVG Export Plug-In . SVG Version: 6.00 Build 0)  -->
<svg version="1.1" id="Layer_1" xmlns="http://www.w3.org/2000/svg" xmlns:xlink="http://www.w3.org/1999/xlink" x="0px" y="0px"
	 viewBox="0 0 803.1 160" style="enable-background:new 0 0 803.1 160;" xml:space="preserve">
<style type="text/css">
	.st0{fill:#52B2E8;}
</style>
<g id="XMLID_2_">
	<path id="XMLID_19_" class="st0" d="M278,64.4h4.3v9.8c0,2.4-0.4,4.2-0.4,4.2h0.2c2.6-7.9,8.4-14.4,16.5-14.4c1.5,0,3,0.3,3,0.3
		v4.3c0,0-1.2-0.2-2.4-0.2c-8.1,0-13.1,6.8-15.4,14.4c-1.1,3.6-1.5,7.4-1.5,10.8V116H278V64.4z"/>
	<path id="XMLID_21_" class="st0" d="M333.1,63.2c14,0,21.1,11,21.1,23.5c0,1.1-0.2,2.8-0.2,2.8h-41.4c0,15,10.1,23.5,22.1,23.5
		c9.9,0,16-6.5,16-6.5l2.4,3.6c0,0-7.2,7.1-18.4,7.1c-14.6,0-26.6-10.5-26.6-26.9C308,72.9,319.9,63.2,333.1,63.2z M349.6,85.5
		c-0.5-12.6-8.1-18.3-16.6-18.3c-9.5,0-18.3,6.2-20.1,18.3H349.6z"/>
	<path id="XMLID_24_" class="st0" d="M388.5,63.2c13,0,17.9,11.7,17.9,11.7h0.2c0,0-0.4-1.9-0.4-4.2V43.8h4.3V116h-4.3v-6.5
		c0-2.4,0.4-3.9,0.4-3.9h-0.2c0,0-4.4,11.7-18.7,11.7c-13.8,0-22.3-11-22.3-27C365.3,73.8,374.9,63.2,388.5,63.2z M387.9,113
		c9.5,0,18.4-6.7,18.4-22.9c0-11.5-5.9-22.7-18-22.7c-10.1,0-18.4,8.4-18.4,22.8C369.9,104.2,377.3,113,387.9,113z"/>
	<path id="XMLID_27_" class="st0" d="M448.4,63.2c13,0,17.9,11.7,17.9,11.7h0.2c0,0-0.4-1.9-0.4-4.2V43.8h4.3V116H466v-6.5
		c0-2.4,0.4-3.9,0.4-3.9h-0.2c0,0-4.4,11.7-18.7,11.7c-13.8,0-22.3-11-22.3-27C425.2,73.8,434.8,63.2,448.4,63.2z M447.8,113
		c9.5,0,18.4-6.7,18.4-22.9c0-11.5-5.9-22.7-18-22.7c-10.1,0-18.4,8.4-18.4,22.8C429.8,104.2,437.2,113,447.8,113z"/>
	<path id="XMLID_30_" class="st0" d="M488.1,43.8h5.2v7.5h-5.2V43.8z M488.5,64.4h4.3V116h-4.3V64.4z"/>
	<path id="XMLID_33_" class="st0" d="M509.2,63.4h12.6v6.1c0,2-0.2,3.6-0.2,3.6h0.2c2.6-5.2,8.9-10.9,17.1-10.9
		c8.1,0,13.2,3.7,15.4,10.8h0.2c2.9-5.7,9.7-10.8,18-10.8c10.9,0,17.2,6.2,17.2,20V116h-13.1V84.7c0-6-1.1-10.5-7.2-10.5
		c-6.7,0-11.2,5.4-12.7,12c-0.5,2.1-0.6,4.3-0.6,6.8V116H543V84.7c0-5.7-0.9-10.5-7.1-10.5c-6.8,0-11.3,5.4-12.9,12.1
		c-0.5,2-0.6,4.3-0.6,6.7V116h-13.1V63.4z"/>
	<path id="XMLID_35_" class="st0" d="M630.2,83h1.8v-0.7c0-6.9-4.3-9.3-10.1-9.3c-7.5,0-14.5,5.1-14.5,5.1l-5-9.4
		c0,0,8.2-6.5,20.7-6.5c13.8,0,21.9,7.6,21.9,20.9V116h-12.1v-4.3c0-2.1,0.2-3.7,0.2-3.7h-0.2c0.1,0-4,9.3-16,9.3
		c-9.4,0-17.9-5.9-17.9-16.4C599,84.1,621.7,83,630.2,83z M620.2,107c6.9,0,11.9-7.4,11.9-13.8V92h-2.3c-6.7,0-17.6,0.9-17.6,8.3
		C612.3,103.7,614.8,107,620.2,107z"/>
	<path id="XMLID_38_" class="st0" d="M660.6,74.6h-6.8V64.2h7.1V49h12.8v15.2h12v10.4h-12v20.4c0,8.7,6.8,9.9,10.4,9.9
		c1.4,0,2.4-0.2,2.4-0.2v11.5c0,0-1.5,0.3-4,0.3c-7.3,0-21.9-2.2-21.9-19.8V74.6z"/>
	<path id="XMLID_40_" class="st0" d="M722,62.2c13.7,0,20.2,7.8,20.2,7.8l-5.8,9c0,0-5.5-5.7-13.7-5.7c-9.7,0-16,7.3-16,16.3
		c0,8.9,6.4,16.5,16.4,16.5c8.9,0,15.5-6.7,15.5-6.7l5.1,9.3c0,0-7.5,8.6-21.7,8.6c-17.5,0-28.6-12.3-28.6-27.6
		C693.4,74.7,704.6,62.2,722,62.2z"/>
	<path id="XMLID_42_" class="st0" d="M753.5,42.8h13.1v25.4c0,2.6-0.2,4.4-0.2,4.4h0.2c2.6-5.1,9-10.4,18.2-10.4
		c11.7,0,18.3,6.1,18.3,20V116h-13V84.9c0-6.4-1.7-10.7-8.4-10.7c-6.9,0-12.3,4.5-14.3,10.9c-0.6,2.1-0.8,4.3-0.8,6.8V116h-13.1
		V42.8z"/>
</g>
<g id="XMLID_123_">
	<g id="XMLID_188_">
		<path id="XMLID_54_" class="st0" d="M108.2,147.5c-8,2.2-16.6,3.1-25.4,2.2c-12.3-1.2-24.1-5.6-34.1-12.8
			c-0.9-0.6-1.9-0.9-2.9-0.9c-0.5,0-1.1,0.1-1.6,0.3c-12.6,4.3-23.1,6.3-30,7.3c6.3-12,10-23.5,11-34.5c0.1-0.8-0.1-1.6-0.4-2.3
			c-4.3-10.5-6-22.1-4.9-33.4C21.7,54.6,30.6,37.9,45.1,26C59.5,14.1,77.7,8.5,96.3,10.3c18.6,1.8,35.4,10.7,47.3,25.2
			s17.4,32.6,15.6,51.2c-2.1,21.3-13.5,39.4-29.8,50.7c3.4,1.8,7,3.3,10.7,4.5c16-13,26.9-32.1,29.1-54.2
			c4.3-43.9-28-83.1-71.9-87.3C76-1.7,55.2,4.7,38.7,18.2C22.2,31.8,12,51,9.9,72.3c-1.2,12.6,0.6,25.3,5.2,37
			c-1.2,11.6-6.1,24.2-14.3,37.5c-1,1.6-1,3.5-0.1,5.1s2.6,2.6,4.4,2.5c0.7,0,16.3-0.4,39.9-8c11,7.4,23.7,11.9,36.8,13.2
			c2.6,0.3,5.2,0.4,7.8,0.4c10.2,0,20.1-2,29.2-5.6C115.1,152.4,111.5,150.1,108.2,147.5z"/>
	</g>
	<g id="XMLID_175_">
		<path id="XMLID_55_" class="st0" d="M248.6,146.8c-8.3-13.2-13.1-25.8-14.3-37.5c4.6-11.7,6.4-24.5,5.2-37
			c-2.1-21.3-12.3-40.5-28.8-54C194.1,4.7,173.3-1.7,152.1,0.4c-7.6,0.7-14.8,2.5-21.5,5.2c3.7,2.1,7.3,4.4,10.6,7
			c3.8-1.1,7.8-1.8,11.8-2.2c2.3-0.2,4.6-0.3,6.9-0.3c16.2,0,31.7,5.6,44.4,16c14.4,11.9,23.4,28.7,25.2,47.3
			c1.1,11.4-0.6,22.9-4.9,33.4c-0.3,0.7-0.4,1.5-0.4,2.3c1,10.9,4.6,22.5,11,34.5c-6.9-1-17.3-3.1-30-7.3c-1.5-0.5-3.2-0.3-4.5,0.7
			c-10,7.2-21.8,11.6-34.1,12.8c-38.4,3.7-72.7-24.5-76.4-62.9c-1.8-18.6,3.7-36.8,15.6-51.2c4.2-5,8.9-9.4,14.1-13
			c-3.4-1.8-7-3.3-10.7-4.4c-20,16.4-31.7,42.1-29.1,69.7c4,41.3,38.9,72.3,79.6,72.3c2.6,0,5.2-0.1,7.8-0.4
			c13.2-1.3,25.9-5.8,36.8-13.2c23.6,7.6,39.2,8,39.9,8c0,0,0.1,0,0.1,0c1.8,0,3.5-1,4.4-2.5C249.6,150.3,249.5,148.3,248.6,146.8z"
			/>
	</g>
</g>
</svg>
