<?xml version="1.0" encoding="utf-8"?>
<!-- Generator: Adobe Illustrator 19.2.0, SVG Export Plug-In . SVG Version: 6.00 Build 0)  -->
<svg version="1.1" id="Layer_1" xmlns="http://www.w3.org/2000/svg" xmlns:xlink="http://www.w3.org/1999/xlink" x="0px" y="0px"
	 viewBox="0 0 430.2 175.1" style="enable-background:new 0 0 430.2 175.1;" xml:space="preserve">
<style type="text/css">
	.st0{fill:#52B2E8;}
	.st1{fill:#FFFFFF;}
</style>
<g id="XMLID_123_">
	<g id="XMLID_188_">
		<path id="XMLID_54_" class="st0" d="M108.2,162.3c-8,2.2-16.6,3.1-25.4,2.2c-12.3-1.2-24.1-5.6-34.1-12.8
			c-0.9-0.6-1.9-0.9-2.9-0.9c-0.5,0-1.1,0.1-1.6,0.3c-12.6,4.3-23.1,6.3-30,7.3c6.3-12,10-23.5,11-34.5c0.1-0.8-0.1-1.6-0.4-2.3
			c-4.3-10.5-6-22.1-4.9-33.4c1.8-18.8,10.7-35.5,25.2-47.4c14.4-11.9,32.6-17.5,51.2-15.7s35.4,10.7,47.3,25.2
			c11.9,14.5,17.4,32.6,15.6,51.2c-2.1,21.3-13.5,39.4-29.8,50.7c3.4,1.8,7,3.3,10.7,4.5c16-13,26.9-32.1,29.1-54.2
			c4.3-43.9-28-83.1-71.9-87.3C76,13.1,55.2,19.5,38.7,33C22.2,46.6,12,65.8,9.9,87.1c-1.2,12.6,0.6,25.3,5.2,37
			c-1.2,11.6-6.1,24.2-14.3,37.5c-1,1.6-1,3.5-0.1,5.1s2.6,2.6,4.4,2.5c0.7,0,16.3-0.4,39.9-8c11,7.4,23.7,11.9,36.8,13.2
			c2.6,0.3,5.2,0.4,7.8,0.4c10.2,0,20.1-2,29.2-5.6C115.1,167.2,111.5,164.9,108.2,162.3z"/>
	</g>
	<g id="XMLID_175_">
		<path id="XMLID_55_" class="st0" d="M248.6,161.6c-8.3-13.2-13.1-25.8-14.3-37.5c4.6-11.7,6.4-24.5,5.2-37
			c-2.1-21.3-12.3-40.5-28.8-54c-16.6-13.6-37.4-20-58.6-17.9c-7.6,0.7-14.8,2.5-21.5,5.2c3.7,2.1,7.3,4.4,10.6,7
			c3.8-1.1,7.8-1.8,11.8-2.2c2.3-0.2,4.6-0.3,6.9-0.3c16.2,0,31.7,5.6,44.4,16c14.4,11.9,23.4,28.7,25.2,47.3
			c1.1,11.4-0.6,22.9-4.9,33.4c-0.3,0.7-0.4,1.5-0.4,2.3c1,10.9,4.6,22.5,11,34.5c-6.9-1-17.3-3.1-30-7.3c-1.5-0.5-3.2-0.3-4.5,0.7
			c-10,7.2-21.8,11.6-34.1,12.8c-38.4,3.7-72.7-24.5-76.4-62.9c-1.8-18.6,3.7-36.8,15.6-51.2c4.2-5,8.9-9.4,14.1-13
			c-3.4-1.8-7-3.3-10.7-4.4c-20,16.4-31.7,42.1-29.1,69.7c4,41.3,38.9,72.3,79.6,72.3c2.6,0,5.2-0.1,7.8-0.4
			c13.2-1.3,25.9-5.8,36.8-13.2c23.6,7.6,39.2,8,39.9,8h0.1c1.8,0,3.5-1,4.4-2.5C249.6,165.1,249.5,163.1,248.6,161.6z"/>
	</g>
</g>
<g>
	<path id="XMLID_2353_" class="st0" d="M278.1,49.2c-0.7,8.2-3.8,18.1-11,29.7c0,0,11.9-0.2,29.7-6.2L278.1,49.2z"/>
	<path class="st0" d="M400.2,74.5h-93.7c-16.6,0-30-13.4-30-30V30c0-16.6,13.4-30,30-30h93.7c16.6,0,30,13.4,30,30v14.5
		C430.2,61.1,416.8,74.5,400.2,74.5z"/>
</g>
<g>
	<path class="st1" d="M298.1,15.6h7.3v12.5c0,1.4-0.1,2.5-0.1,2.5h0.1c0,0,2.6-4.2,8.8-4.2c7.9,0,12.9,6.2,12.9,15.3
		c0,9.3-5.7,15.3-13.4,15.3c-6.1,0-8.7-4.3-8.7-4.3h-0.1c0,0,0.1,0.9,0.1,2v1.7h-6.9L298.1,15.6L298.1,15.6z M312.4,50.8
		c4,0,7.3-3.3,7.3-9c0-5.6-3-9.2-7.3-9.2c-3.8,0-7.3,2.7-7.3,9.2C305.2,46.4,307.6,50.8,312.4,50.8z"/>
	<path class="st1" d="M345.8,26.4c8.4,0,12.9,6.1,12.9,13.8c0,0.9-0.2,2.8-0.2,2.8h-20.1c0.5,5.1,4.4,7.7,8.8,7.7
		c4.7,0,8.4-3.2,8.4-3.2l2.8,5.2c0,0-4.5,4.2-11.7,4.2c-9.7,0-15.7-7-15.7-15.3C331,32.7,337.1,26.4,345.8,26.4z M351.4,38.1
		c-0.1-3.9-2.6-6.1-5.8-6.1c-3.7,0-6.3,2.3-7,6.1H351.4z"/>
	<path class="st1" d="M366,33.3h-3.8v-5.8h3.9v-8.4h7.1v8.4h6.6v5.8h-6.6v11.3c0,4.8,3.8,5.5,5.8,5.5c0.8,0,1.3-0.1,1.3-0.1v6.4
		c0,0-0.9,0.2-2.2,0.2c-4.1,0-12.1-1.2-12.1-11V33.3z"/>
	<path class="st1" d="M401.2,38h1v-0.4c0-3.8-2.4-5.1-5.6-5.1c-4.2,0-8,2.8-8,2.8l-2.7-5.2c0,0,4.5-3.6,11.4-3.6
		c7.7,0,12.1,4.2,12.1,11.6v18.3h-6.7V54c0-1.1,0.1-2.1,0.1-2.1h-0.1c0.1,0-2.2,5.1-8.9,5.1c-5.2,0-9.9-3.3-9.9-9.1
		C383.9,38.6,396.4,38,401.2,38z M395.6,51.3c3.8,0,6.6-4.1,6.6-7.7v-0.7h-1.3c-3.7,0-9.7,0.5-9.7,4.6
		C391.2,49.5,392.6,51.3,395.6,51.3z"/>
</g>
</svg>
