<?xml version="1.0" encoding="utf-8"?>
<!-- Generator: Adobe Illustrator 19.0.1, SVG Export Plug-In . SVG Version: 6.00 Build 0)  -->
<svg version="1.1" id="Layer_1" xmlns="http://www.w3.org/2000/svg" xmlns:xlink="http://www.w3.org/1999/xlink" x="0px" y="0px"
	 viewBox="0 0 111.7 70" style="enable-background:new 0 0 111.7 70;" xml:space="preserve">
<style type="text/css">
	.st0{opacity:0.7;fill:#FFFFFF;}
</style>
<g id="XMLID_237_">
	<g id="XMLID_245_">
		<path id="XMLID_367_" class="st0" d="M111.7,67.4c-4.6-7.4-6.6-13.8-7.1-19.1c2.1-5.1,3-10.8,2.5-16.7
			c-1.9-19.2-19-33.3-38.2-31.5s-33.3,19-31.5,38.2c1.9,19.2,19,33.3,38.2,31.5c6.4-0.6,12.2-2.9,17-6.4
			C104.1,67.3,111.7,67.4,111.7,67.4z"/>
		<path id="XMLID_368_" class="st0" d="M0,67.4c4.6-7.4,6.6-13.8,7.1-19.1C5,43.2,4,37.5,4.6,31.6c1.9-19.2,19-33.3,38.2-31.5
			s33.3,19,31.5,38.2c-1.9,19.2-19,33.3-38.2,31.5c-6.4-0.6-12.2-2.9-17-6.4C7.6,67.3,0,67.4,0,67.4z"/>
	</g>
</g>
</svg>
