<?xml version="1.0" encoding="utf-8"?>
<!-- Generator: Adobe Illustrator 19.0.1, SVG Export Plug-In . SVG Version: 6.00 Build 0)  -->
<svg version="1.1" id="Layer_1" xmlns="http://www.w3.org/2000/svg" xmlns:xlink="http://www.w3.org/1999/xlink" x="0px" y="0px"
	 viewBox="0 0 168.3 85.9" style="enable-background:new 0 0 168.3 85.9;" xml:space="preserve">
<style type="text/css">
	.st0{fill:#FFFFFF;}
</style>
<g id="XMLID_267_">
	<g id="XMLID_281_">
		<path id="XMLID_356_" class="st0" d="M0,69h1.4v3.1c0,0.8-0.1,1.4-0.1,1.4h0.1C2.2,71,4,68.9,6.6,68.9c0.5,0,1,0.1,1,0.1v1.4
			c0,0-0.4-0.1-0.8-0.1c-2.6,0-4.2,2.2-4.9,4.6c-0.4,1.2-0.5,2.4-0.5,3.5v7.1H0V69z"/>
		<path id="XMLID_353_" class="st0" d="M17.7,68.6c4.5,0,6.8,3.5,6.8,7.5c0,0.4-0.1,0.9-0.1,0.9H11.1c0,4.8,3.2,7.5,7.1,7.5
			c3.2,0,5.1-2.1,5.1-2.1l0.8,1.2c0,0-2.3,2.3-5.9,2.3c-4.7,0-8.5-3.4-8.5-8.6C9.6,71.7,13.4,68.6,17.7,68.6z M23,75.7
			c-0.2-4-2.6-5.9-5.3-5.9c-3,0-5.9,2-6.5,5.9H23z"/>
		<path id="XMLID_349_" class="st0" d="M35.4,68.6c4.2,0,5.7,3.7,5.7,3.7h0.1c0,0-0.1-0.6-0.1-1.4v-8.6h1.4v23.2h-1.4v-2.1
			c0-0.8,0.1-1.3,0.1-1.3h-0.1c0,0-1.4,3.7-6,3.7c-4.4,0-7.2-3.5-7.2-8.7C28,72,31.1,68.6,35.4,68.6z M35.2,84.6
			c3,0,5.9-2.2,5.9-7.3c0-3.7-1.9-7.3-5.8-7.3c-3.2,0-5.9,2.7-5.9,7.3C29.5,81.7,31.8,84.6,35.2,84.6z"/>
		<path id="XMLID_346_" class="st0" d="M54.6,68.6c4.2,0,5.7,3.7,5.7,3.7h0.1c0,0-0.1-0.6-0.1-1.4v-8.6h1.4v23.2h-1.4v-2.1
			c0-0.8,0.1-1.3,0.1-1.3h-0.1c0,0-1.4,3.7-6,3.7c-4.4,0-7.2-3.5-7.2-8.7C47.2,72,50.3,68.6,54.6,68.6z M54.4,84.6
			c3,0,5.9-2.2,5.9-7.3c0-3.7-1.9-7.3-5.8-7.3c-3.2,0-5.9,2.7-5.9,7.3C48.7,81.7,51,84.6,54.4,84.6z"/>
		<path id="XMLID_342_" class="st0" d="M67.4,62.4H69v2.4h-1.7V62.4z M67.5,69h1.4v16.5h-1.4V69z"/>
		<path id="XMLID_340_" class="st0" d="M74.1,68.7h4v2c0,0.6-0.1,1.2-0.1,1.2h0.1c0.8-1.7,2.8-3.5,5.5-3.5c2.6,0,4.2,1.2,4.9,3.5
			h0.1c0.9-1.8,3.1-3.5,5.8-3.5c3.5,0,5.5,2,5.5,6.4v10.8h-4.2V75.5c0-1.9-0.4-3.4-2.3-3.4c-2.2,0-3.6,1.7-4.1,3.8
			c-0.2,0.7-0.2,1.4-0.2,2.2v7.4h-4.2V75.5c0-1.8-0.3-3.4-2.3-3.4c-2.2,0-3.6,1.7-4.1,3.9c-0.2,0.6-0.2,1.4-0.2,2.2v7.4h-4.2V68.7z"
			/>
		<path id="XMLID_335_" class="st0" d="M112.9,75h0.6v-0.2c0-2.2-1.4-3-3.2-3c-2.4,0-4.6,1.6-4.6,1.6l-1.6-3c0,0,2.6-2.1,6.6-2.1
			c4.4,0,7,2.4,7,6.7v10.6h-3.9v-1.4c0-0.7,0.1-1.2,0.1-1.2h-0.1c0,0-1.3,3-5.1,3c-3,0-5.7-1.9-5.7-5.3
			C102.9,75.3,110.2,75,112.9,75z M109.7,82.7c2.2,0,3.8-2.4,3.8-4.4v-0.4h-0.7c-2.2,0-5.6,0.3-5.6,2.6
			C107.1,81.6,108,82.7,109.7,82.7z"/>
		<path id="XMLID_296_" class="st0" d="M122.6,72.3h-2.2v-3.3h2.3v-4.9h4.1v4.9h3.8v3.3h-3.8v6.5c0,2.8,2.2,3.2,3.3,3.2
			c0.5,0,0.8-0.1,0.8-0.1v3.7c0,0-0.5,0.1-1.3,0.1c-2.4,0-7-0.7-7-6.4V72.3z"/>
		<path id="XMLID_291_" class="st0" d="M142.3,68.3c4.4,0,6.5,2.5,6.5,2.5l-1.9,2.9c0,0-1.8-1.8-4.4-1.8c-3.1,0-5.1,2.3-5.1,5.2
			c0,2.8,2.1,5.3,5.3,5.3c2.8,0,5-2.2,5-2.2l1.6,3c0,0-2.4,2.7-7,2.7c-5.6,0-9.2-3.9-9.2-8.8C133.2,72.3,136.7,68.3,142.3,68.3z"/>
		<path id="XMLID_283_" class="st0" d="M152.4,62.1h4.2v8.1c0,0.8-0.1,1.4-0.1,1.4h0.1c0.8-1.6,2.9-3.3,5.8-3.3c3.7,0,5.9,2,5.9,6.4
			v10.8h-4.2v-10c0-2.1-0.5-3.4-2.7-3.4c-2.2,0-3.9,1.5-4.6,3.5c-0.2,0.7-0.3,1.4-0.3,2.2v7.7h-4.2V62.1z"/>
	</g>
	<g id="XMLID_276_">
		<path id="XMLID_280_" class="st0" d="M78.9,47.3c-2.6,0.7-5.3,1-8.1,0.7c-3.9-0.4-7.7-1.8-10.9-4.1c-0.3-0.2-0.6-0.3-0.9-0.3
			c-0.2,0-0.3,0-0.5,0.1c-4,1.4-7.4,2-9.6,2.3c2-3.8,3.2-7.5,3.5-11.1c0-0.3,0-0.5-0.1-0.8c-1.4-3.4-1.9-7.1-1.6-10.7
			c0.6-6,3.4-11.3,8.1-15.2c4.6-3.8,10.5-5.6,16.4-5c6,0.6,11.3,3.4,15.2,8.1s5.6,10.5,5,16.4c-0.7,6.8-4.3,12.6-9.5,16.3
			c1.1,0.6,2.2,1.1,3.4,1.4c5.1-4.2,8.6-10.3,9.3-17.4c1.4-14.1-9-26.6-23.1-28c-6.8-0.7-13.5,1.4-18.8,5.7
			c-5.3,4.4-8.6,10.5-9.2,17.3c-0.4,4,0.2,8.1,1.7,11.9c-0.4,3.7-1.9,7.8-4.6,12c-0.3,0.5-0.3,1.1,0,1.6s0.8,0.8,1.4,0.8
			c0.2,0,5.2-0.1,12.8-2.6c3.5,2.4,7.6,3.8,11.8,4.2c0.8,0.1,1.7,0.1,2.5,0.1c3.3,0,6.4-0.6,9.4-1.8C81.1,48.9,80,48.1,78.9,47.3z"
			/>
		<path id="XMLID_278_" class="st0" d="M123.9,47c-2.7-4.2-4.2-8.3-4.6-12c1.5-3.7,2.1-7.8,1.7-11.9c-0.7-6.8-3.9-13-9.2-17.3
			c-5.3-4.4-12-6.4-18.8-5.7c-2.4,0.2-4.7,0.8-6.9,1.7c1.2,0.7,2.3,1.4,3.4,2.2c1.2-0.3,2.5-0.6,3.8-0.7c0.7-0.1,1.5-0.1,2.2-0.1
			c5.2,0,10.2,1.8,14.2,5.1c4.6,3.8,7.5,9.2,8.1,15.2c0.4,3.6-0.2,7.3-1.6,10.7c-0.1,0.2-0.1,0.5-0.1,0.8c0.3,3.5,1.5,7.2,3.5,11.1
			c-2.2-0.3-5.6-1-9.6-2.4c-0.5-0.2-1-0.1-1.4,0.2c-3.2,2.3-7,3.7-10.9,4.1c-12.3,1.2-23.3-7.9-24.5-20.2c-0.6-6,1.2-11.8,5-16.4
			c1.3-1.6,2.9-3,4.5-4.2c-1.1-0.6-2.2-1-3.4-1.4C72.8,11,69,19.3,69.9,28.1c1.3,13.2,12.5,23.2,25.5,23.2c0.8,0,1.7,0,2.5-0.1
			c4.2-0.4,8.3-1.9,11.8-4.2c7.6,2.4,12.6,2.6,12.8,2.6c0,0,0,0,0,0c0.6,0,1.1-0.3,1.4-0.8C124.2,48.2,124.2,47.5,123.9,47z"/>
	</g>
</g>
</svg>
